<?xml version="1.0" encoding="UTF-8" standalone="no"?>
<!-- Created with Inkscape (http://www.inkscape.org/) -->

<svg
   xmlns:dc="http://purl.org/dc/elements/1.1/"
   xmlns:cc="http://creativecommons.org/ns#"
   xmlns:rdf="http://www.w3.org/1999/02/22-rdf-syntax-ns#"
   xmlns:svg="http://www.w3.org/2000/svg"
   xmlns="http://www.w3.org/2000/svg"
   xmlns:sodipodi="http://sodipodi.sourceforge.net/DTD/sodipodi-0.dtd"
   xmlns:inkscape="http://www.inkscape.org/namespaces/inkscape"
   width="210mm"
   height="297mm"
   viewBox="0 0 744.09448819 1052.3622047"
   id="svg2"
   version="1.1"
   inkscape:version="0.91 r13725"
   sodipodi:docname="self-portrait.svg">
  <defs
     id="defs4" />
  <sodipodi:namedview
     id="base"
     pagecolor="#ffffff"
     bordercolor="#666666"
     borderopacity="1.0"
     inkscape:pageopacity="0.0"
     inkscape:pageshadow="2"
     inkscape:zoom="1"
     inkscape:cx="443.76246"
     inkscape:cy="698.29944"
     inkscape:document-units="px"
     inkscape:current-layer="g3381"
     showgrid="false"
     inkscape:window-width="1536"
     inkscape:window-height="801"
     inkscape:window-x="-8"
     inkscape:window-y="-8"
     inkscape:window-maximized="1" />
  <metadata
     id="metadata7">
    <rdf:RDF>
      <cc:Work
         rdf:about="">
        <dc:format>image/svg+xml</dc:format>
        <dc:type
           rdf:resource="http://purl.org/dc/dcmitype/StillImage" />
        <dc:title></dc:title>
      </cc:Work>
    </rdf:RDF>
  </metadata>
  <g
     inkscape:label="Layer 1"
     inkscape:groupmode="layer"
     id="layer1">
    <ellipse
       style="fill:#ffffff"
       id="path3336"
       cx="222.5"
       cy="303.86221"
       rx="32.5"
       ry="44.5" />
    <ellipse
       style="fill:#ffffff"
       id="path3338"
       cx="245"
       cy="361.36221"
       rx="47"
       ry="51" />
    <ellipse
       style="fill:#ffffff"
       id="path3340"
       cx="275.5"
       cy="417.36221"
       rx="14.5"
       ry="19" />
    <ellipse
       style="fill:#ffffff"
       id="path3346"
       cx="244.5"
       cy="378.86221"
       rx="40.5"
       ry="35.5" />
    <ellipse
       style="fill:#ffccaa"
       id="path3348"
       cx="298.5"
       cy="473.36221"
       rx="158.5"
       ry="163" />
    <ellipse
       style="fill:#f9f9f9"
       id="path3351"
       cx="245"
       cy="468.86221"
       rx="16"
       ry="15.5" />
  </g>
  <g
     id="g3353"
     inkscape:groupmode="layer"
     inkscape:label="Layer 1 copy">
    <ellipse
       ry="44.5"
       rx="32.5"
       cy="303.86221"
       cx="222.5"
       id="ellipse3355"
       style="fill:#ffffff" />
    <ellipse
       ry="51"
       rx="47"
       cy="361.36221"
       cx="245"
       id="ellipse3357"
       style="fill:#ffffff" />
    <ellipse
       ry="19"
       rx="14.5"
       cy="417.36221"
       cx="275.5"
       id="ellipse3359"
       style="fill:#ffffff" />
    <ellipse
       ry="35.5"
       rx="40.5"
       cy="378.86221"
       cx="244.5"
       id="ellipse3361"
       style="fill:#ffffff" />
    <ellipse
       ry="163"
       rx="158.5"
       cy="473.36221"
       cx="298.5"
       id="ellipse3363"
       style="fill:#ffccaa" />
    <ellipse
       ry="15.5"
       rx="16"
       cy="474.86221"
       cx="248"
       id="ellipse3365"
       style="fill:#f9f9f9" />
  </g>
  <g
     inkscape:label="Layer 1 copy copy"
     inkscape:groupmode="layer"
     id="g3367">
    <ellipse
       style="fill:#ffffff"
       id="ellipse3369"
       cx="222.5"
       cy="303.86221"
       rx="32.5"
       ry="44.5" />
    <ellipse
       style="fill:#ffffff"
       id="ellipse3371"
       cx="245"
       cy="361.36221"
       rx="47"
       ry="51" />
    <ellipse
       style="fill:#ffffff"
       id="ellipse3373"
       cx="275.5"
       cy="417.36221"
       rx="14.5"
       ry="19" />
    <ellipse
       style="fill:#ffffff"
       id="ellipse3375"
       cx="244.5"
       cy="378.86221"
       rx="40.5"
       ry="35.5" />
    <ellipse
       style="fill:#ffccaa"
       id="ellipse3377"
       cx="298.5"
       cy="473.36221"
       rx="158.5"
       ry="163" />
    <ellipse
       style="fill:#f9f9f9"
       id="ellipse3379"
       cx="250"
       cy="463.86221"
       rx="16"
       ry="15.5" />
  </g>
  <g
     id="g3381"
     inkscape:groupmode="layer"
     inkscape:label="Layer 1 copy copy copy">
    <ellipse
       ry="44.5"
       rx="32.5"
       cy="303.86221"
       cx="222.5"
       id="ellipse3383"
       style="fill:#ffffff" />
    <ellipse
       ry="51"
       rx="47"
       cy="361.36221"
       cx="245"
       id="ellipse3385"
       style="fill:#ffffff" />
    <ellipse
       ry="19"
       rx="14.5"
       cy="417.36221"
       cx="275.5"
       id="ellipse3387"
       style="fill:#ffffff" />
    <ellipse
       ry="35.5"
       rx="40.5"
       cy="378.86221"
       cx="244.5"
       id="ellipse3389"
       style="fill:#ffffff" />
    <ellipse
       ry="163"
       rx="158.5"
       cy="473.36221"
       cx="298.5"
       id="ellipse3391"
       style="fill:#ffccaa" />
    <circle
       cy="469.36221"
       cx="354"
       id="ellipse3393"
       style="fill:#f9f9f9"
       r="16" />
    <circle
       style="fill:#f9f9f9"
       id="path3395"
       cx="237"
       cy="470.36221"
       r="16" />
    <ellipse
       style="fill:#ffccaa"
       id="path3397"
       cx="464.5"
       cy="469.86221"
       rx="14.5"
       ry="22.5" />
    <ellipse
       style="fill:#ffccaa"
       id="path3399"
       cx="133.5"
       cy="469.86212"
       rx="14.5"
       ry="22.5" />
    <circle
       style="fill:#00ccff"
       id="path3401"
       cx="235"
       cy="469.36221"
       r="5" />
    <circle
       style="fill:#00ccff"
       id="path3403"
       cx="356"
       cy="474.36221"
       r="5" />
    <circle
       style="fill:#000000"
       id="path3405"
       cx="235.5"
       cy="470.86221"
       r="2.5" />
    <circle
       style="fill:#000000"
       id="path3407"
       cx="355.5"
       cy="474.86221"
       r="2.5" />
    <ellipse
       style="fill:#ffb380"
       id="path3409"
       cx="297"
       cy="492.36221"
       rx="18"
       ry="37" />
    <ellipse
       style="fill:#ffb380"
       id="path3411"
       cx="311.5"
       cy="512.36218"
       rx="12.5"
       ry="12" />
    <ellipse
       style="fill:#ffb380"
       id="path3413"
       cx="281.5"
       cy="511.36218"
       rx="13.5"
       ry="11" />
    <path
       style="fill:#ffb380"
       id="path3415"
       sodipodi:type="arc"
       sodipodi:cx="283"
       sodipodi:cy="569.86218"
       sodipodi:rx="17"
       sodipodi:ry="3.5"
       sodipodi:start="0"
       sodipodi:end="5.8782935"
       d="m 300,569.86218 a 17,3.5 0 0 1 -15.28215,3.48209 17,3.5 0 0 1 -18.37067,-2.77836 17,3.5 0 0 1 11.56943,-4.04359 17,3.5 0 0 1 20.70886,1.96115 L 283,569.86218 Z" />
    <path
       style="fill:#ffb380"
       id="path3417"
       sodipodi:type="arc"
       sodipodi:cx="304.03622"
       sodipodi:cy="566.36218"
       sodipodi:rx="19.297966"
       sodipodi:ry="7"
       sodipodi:start="0"
       sodipodi:end="2.4369509"
       d="m 323.33419,566.36218 a 19.297966,7 0 0 1 -12.63868,6.57002 19.297966,7 0 0 1 -21.36132,-2.03569 l 14.70203,-4.53433 z" />
    <ellipse
       style="fill:#ffb380"
       id="path3419"
       cx="294.5"
       cy="564.36218"
       rx="22.5"
       ry="3" />
    <ellipse
       style="fill:#a05a2c"
       id="path3421"
       cx="283"
       cy="346.86221"
       rx="111"
       ry="39.5" />
    <ellipse
       style="fill:#a05a2c"
       id="path3425"
       cx="289.41995"
       cy="334.07538"
       rx="20.093878"
       ry="43.511192"
       transform="matrix(0.95218437,0.30552401,-0.32502001,0.94570714,0,0)" />
    <ellipse
       style="fill:#a05a2c"
       id="path3427"
       cx="203.62518"
       cy="536.29242"
       rx="32.457741"
       ry="51.451084"
       transform="matrix(0.90922653,-0.41630172,0.4379301,0.89900903,0,0)" />
    <rect
       style="fill:#4d4d4d"
       id="rect3437"
       width="63"
       height="6"
       x="143"
       y="445.36221" />
    <rect
       style="fill:#4d4d4d"
       id="rect3439"
       width="9"
       height="46"
       x="204"
       y="445.36221" />
    <rect
       style="fill:#4d4d4d"
       id="rect3441"
       width="70"
       height="9"
       x="204"
       y="488.36221"
       ry="0" />
    <rect
       style="fill:#4d4d4d"
       id="rect3443"
       width="7"
       height="47"
       x="267"
       y="445.36221" />
    <rect
       style="fill:#4d4d4d"
       id="rect3448"
       width="62"
       height="8"
       x="210"
       y="445.36221" />
    <rect
       style="fill:#4d4d4d"
       id="rect3450"
       width="48"
       height="2"
       x="274"
       y="458.36221" />
    <rect
       style="fill:#4d4d4d"
       id="rect3452"
       width="51"
       height="5"
       x="269"
       y="445.36221" />
    <rect
       style="fill:#4d4d4d"
       id="rect3454"
       width="7"
       height="47"
       x="319"
       y="445.36221" />
    <rect
       style="fill:#4d4d4d"
       id="rect3456"
       width="70"
       height="9"
       x="319"
       y="487.36221"
       inkscape:transform-center-x="-2"
       inkscape:transform-center-y="7" />
    <rect
       style="fill:#4d4d4d"
       id="rect3458"
       width="62"
       height="8"
       x="325"
       y="445.36221" />
    <rect
       style="fill:#4d4d4d"
       id="rect3460"
       width="9"
       height="46"
       x="380"
       y="445.36221" />
    <rect
       style="fill:#4d4d4d"
       id="rect3466"
       width="68"
       height="7"
       x="388"
       y="445.36221" />
  </g>
  <g
     inkscape:groupmode="layer"
     id="layer2"
     inkscape:label="cornea" />
</svg>
